<?xml version="1.0" standalone="no"?><!DOCTYPE svg PUBLIC "-//W3C//DTD SVG 1.1//EN" "http://www.w3.org/Graphics/SVG/1.1/DTD/svg11.dtd"><svg class="icon" width="200px" height="200.00px" viewBox="0 0 1024 1024" version="1.1" xmlns="http://www.w3.org/2000/svg"><path fill="#22447A" d="M795.062857 410.185143c-22.528-67.437714-50.322286-112.64-51.492571-114.541714-4.096-6.875429-13.165714-9.216-20.041143-5.12-6.875429 4.096-9.216 13.165714-5.12 20.041142 0.146286 0.146286 0.146286 0.292571 0.292571 0.438858l3.072 5.412571c3.510857 6.582857 5.997714 13.604571 7.021715 20.918857 0.438857 5.266286 0.438857 10.532571 0 15.798857-0.438857 4.827429-1.316571 9.654857-2.486858 14.482286-1.170286 15.067429-21.357714 18.724571-27.794285 5.12-26.916571-56.173714-63.634286-101.668571-95.232-134.144-53.540571-55.296-102.692571-85.284571-104.740572-86.454857-6.875429-4.242286-15.945143-2.048-20.187428 4.827428-0.877714 1.462857-1.462857 2.925714-1.755429 4.534858-0.146286 0.585143-13.750857 61.147429-61.147428 117.76-24.137143 28.672-50.322286 50.907429-75.483429 72.411428-50.176 42.715429-101.961143 87.04-134.290286 178.761143l-0.292571 1.170286c-11.995429 46.811429-10.386286 94.354286 4.827428 141.165714 12.141714 37.156571 32.621714 73.874286 61.147429 109.129143 48.128 59.538286 101.814857 94.354286 104.009143 95.817143 6.729143 4.388571 15.798857 2.486857 20.187428-4.242286 1.170286-1.755429 1.901714-3.657143 2.194286-5.705143 12.434286-76.361143 42.276571-122.441143 65.097143-147.602286 4.388571-4.827429 9.069714-9.508571 13.897143-13.897142 16.237714-14.628571 40.667429-15.213714 57.490286-1.170286 64.658286 54.418286 78.848 160.914286 78.994285 162.084571 1.024 8.045714 8.338286 13.750857 16.384 12.726857 1.901714-0.292571 3.803429-0.877714 5.412572-1.755428 94.500571-53.833143 154.185143-127.268571 177.298285-218.112 23.698286-93.037714 3.657143-187.099429-17.261714-249.856z" /></svg>