<?xml version="1.0" standalone="no"?><!DOCTYPE svg PUBLIC "-//W3C//DTD SVG 1.1//EN" "http://www.w3.org/Graphics/SVG/1.1/DTD/svg11.dtd"><svg class="icon" width="200px" height="200.00px" viewBox="0 0 1024 1024" version="1.1" xmlns="http://www.w3.org/2000/svg"><path fill="#22447A" d="M265.777691 965.27962c3.052522 1.017166 7.375991 2.424212 8.942673 2.545986 2.583848-0.004093 6.354731-1.206478 10.406-2.557242l225.965452-106.444311 225.958288 106.444311c3.906983 1.301645 7.845689 2.553149 10.606569 2.553149 2.769067 0 6.559393-1.206478 10.613732-2.557242l235.747235-110.620424c7.130398-3.067872 11.101849-9.986445 11.101849-18.727526V586.615395c0-8.556886-6.16235-15.077394-9.649777-18.084891l-226.910987-125.641535V208.112851c0-7.194866-4.319375-14.9679-10.807137-19.525705L520.695544 59.045791c-5.745864-3.824095-13.458523-3.832282-19.204387 0l-1.089821 0.662079-235.95906 130.683365c-7.277754 5.02341-10.818393 11.420097-10.818393 19.537985V444.742177L27.873326 568.896848c-6.051833 4.229325-8.994861 10.031471-8.994862 17.718547v247.481487c0 8.742105 3.971451 15.663748 10.626012 18.515703l236.273215 112.667035z m502.782057-52.257177V711.405539l194.762799-90.890056v201.61281l-194.762799 90.89415z m-473.133807 0V711.405539l194.762799-90.890056v201.61281l-194.762799 90.89415z m-41.802058 0L58.861084 822.128293V620.515483l194.762799 90.890056v201.616904z m473.132784 0l-194.765869-90.89415V620.519576l194.765869 90.885963v201.616904zM274.542308 674.683173L83.989391 586.04746l189.913351-105.994056 208.224392 97.464799-207.584826 97.16497z m473.05706-0.01842l-207.547987-97.14655 208.179367-97.445356 192.095039 105.975636-192.726419 88.61627zM490.18874 534.508643l-194.762799-90.882893V242.009869l194.762799 90.890057v201.608717z m41.802058 0V332.899926l194.765869-90.885963V443.626773l-194.765869 90.88187z m-20.898982-236.444107L320.86124 207.371978 511.091816 101.195773l190.223412 106.176205-190.223412 90.692558z"  /></svg>